<?xml version="1.0" standalone="no"?>
<svg viewBox="0 0 200 200" xmlns="http://www.w3.org/2000/svg">
  <path fill="#4E1AA9" d="M22.9,-36.5C34.3,-33.1,51.4,-36.3,55,-31.3C58.6,-26.3,48.7,-13.2,48.1,-0.4C47.4,12.4,55.9,24.8,51.8,28.8C47.6,32.9,30.8,28.6,20.1,24.7C9.4,20.7,4.7,17.2,-4.6,25.1C-13.8,33,-27.6,52.4,-35.2,54.5C-42.8,56.6,-44.2,41.4,-40.3,29.5C-36.4,17.5,-27.3,8.8,-27,0.2C-26.7,-8.4,-35.1,-16.8,-35.7,-22.9C-36.2,-29.1,-28.7,-33,-21.5,-38.8C-14.2,-44.7,-7.1,-52.5,-0.7,-51.3C5.7,-50.1,11.5,-40,22.9,-36.5Z" transform="translate(100 100)" />
</svg>
